<?xml version="1.0" encoding="utf-8"?>
<!-- Generator: Adobe Illustrator 18.1.1, SVG Export Plug-In . SVG Version: 6.00 Build 0)  -->
<!DOCTYPE svg PUBLIC "-//W3C//DTD SVG 1.1//EN" "http://www.w3.org/Graphics/SVG/1.1/DTD/svg11.dtd">
<svg version="1.1" id="Layer_1" xmlns="http://www.w3.org/2000/svg" xmlns:xlink="http://www.w3.org/1999/xlink" x="0px" y="0px"
	 width="282.5px" height="61.5px" viewBox="0 0 282.5 61.5" enable-background="new 0 0 282.5 61.5" xml:space="preserve">
<path fill="#FFFFFF" d="M34.7,33.9v2.3H42v15.2l3.1,1.2V33.9H34.7z M31.5,29.3v18.1l1,0.4v-16v-0.2h14.9v21.9l4,1.5V29.3H31.5z
	 M0,24.4l11,33.8l18.2-11.4V27h24.4v28.9l14.5,5.6l14.7-31.4l-46-28.7L0,24.4z"/>
<polygon fill="#FFFFFF" points="68.2,0 59.7,15.6 82.8,30.1 "/>
<g>
	<defs>
		<rect id="SVGID_1_" width="282.5" height="61.5"/>
	</defs>
	<clipPath id="SVGID_2_">
		<use xlink:href="#SVGID_1_"  overflow="visible"/>
	</clipPath>
	<path clip-path="url(#SVGID_2_)" fill="#FFFFFF" d="M99.9,30.5c-1.5,0-2.9-0.2-3.9-0.5l0.1-2.2c1.1,0.4,2.7,0.7,4,0.7
		c2.5,0,4.7-1,4.7-3.7c0-4.7-9.1-2.9-9.1-9.1c0-3.1,2.5-5.5,6.8-5.5c1.2,0,2.4,0.1,3.5,0.4l-0.1,2c-1.1-0.3-2.4-0.5-3.6-0.5
		c-2.9,0-4.4,1.3-4.4,3.4c0,4.5,9.1,2.9,9.1,9.1C107.1,28,104.4,30.5,99.9,30.5"/>
	<path clip-path="url(#SVGID_2_)" fill="#FFFFFF" d="M115.7,30.5c-2.9,0-3.8-1.3-3.8-4.3v-8.7h-3.2v-1.7h3.2v-4.8l2.2-0.6v5.4h4.3
		v1.7h-4.3v7.8c0,2.6,0.5,3.3,2.2,3.3c0.7,0,1.5-0.1,2.1-0.3v1.9C117.6,30.4,116.6,30.5,115.7,30.5"/>
	<path clip-path="url(#SVGID_2_)" fill="#FFFFFF" d="M131.6,30.3c0-0.9,0.1-2.3,0.2-3.2l-0.1,0c-0.8,2.1-2.7,3.5-5.2,3.5
		c-3.3,0-4.4-2.1-4.4-4.7V15.8h2.2v9.4c0,2.3,0.6,3.6,2.7,3.6c2.6,0,4.4-2.6,4.4-6v-7h2.2v14.5H131.6z"/>
	<path clip-path="url(#SVGID_2_)" fill="#FFFFFF" d="M147.8,30.3c0-0.9,0.1-2.3,0.3-3.2l-0.1,0c-0.8,2.1-2.7,3.4-5,3.4
		c-3.6,0-5.3-2.6-5.3-6.9c0-5.2,2.9-8.1,7.4-8.1c0.8,0,1.7,0.1,2.7,0.1V8.9h2.2v21.3H147.8z M147.8,17.7c-1-0.2-1.9-0.4-2.9-0.4
		c-3,0-5,1.8-5,6.2c0,3.3,1.1,5.2,3.5,5.2c2.9,0,4.3-3.4,4.3-6V17.7z"/>
	<path clip-path="url(#SVGID_2_)" fill="#FFFFFF" d="M160.1,31.8c-1.7,4.5-3,6-6.2,6c-0.5,0-1.3-0.1-1.8-0.1l0.2-2
		c0.6,0.2,1.2,0.3,1.8,0.3c1.8,0,2.6-0.8,3.8-3.9l0.7-1.7L153,15.8h2.5l3,8.3c0.5,1.3,0.8,2.4,1.1,3.4h0c0.3-0.9,0.9-2.7,1.5-4.4
		l2.6-7.4h2.4L160.1,31.8z"/>
	<path clip-path="url(#SVGID_2_)" fill="#FFFFFF" d="M180.1,30.3l-1.2-3.7H172l-1.2,3.7h-4.5l6.7-19.7h5.2l6.9,19.7H180.1z
		 M176.3,19.1c-0.4-1.1-0.7-2.1-0.9-3.3h-0.1c-0.2,1.1-0.5,2.3-0.9,3.5l-1.3,3.7h4.6L176.3,19.1z"/>
	<path clip-path="url(#SVGID_2_)" fill="#FFFFFF" d="M192.4,30.4c-2.2,0-4-0.1-5.6-0.1V15.1c1.4,0,4.4-0.1,6.4-0.1
		c4.9,0,8.2,2,8.2,7.4C201.5,28,197.5,30.4,192.4,30.4 M192.9,18.7c-0.5,0-1.1,0-1.5,0.1v7.8c0.3,0,0.8,0.1,1.5,0.1
		c2.3,0,3.9-1.4,3.9-4.1C196.7,20,195.4,18.7,192.9,18.7"/>
</g>
<polygon fill="#FFFFFF" points="204.3,30.3 204.3,15.1 214.2,15.1 214.2,18.6 208.8,18.6 208.8,20.8 213.9,20.8 213.9,24.3 
	208.8,24.3 208.8,26.7 214.2,26.7 214.2,30.3 "/>
<polygon fill="#FFFFFF" points="217.9,30.3 217.9,15.1 222.4,15.1 222.4,26.2 227,26.2 227,30.3 "/>
<g>
	<defs>
		<rect id="SVGID_3_" width="282.5" height="61.5"/>
	</defs>
	<clipPath id="SVGID_4_">
		<use xlink:href="#SVGID_3_"  overflow="visible"/>
	</clipPath>
	<path clip-path="url(#SVGID_4_)" fill="#FFFFFF" d="M239.3,30.3l-0.8-2.3h-5.3l-0.8,2.3h-4.5l5.5-15.2h5.4l5.5,15.2H239.3z
		 M236.5,21.9c-0.2-0.6-0.5-1.4-0.6-2.1h0c-0.1,0.6-0.4,1.3-0.6,2l-1.1,2.9h3.3L236.5,21.9z"/>
</g>
<rect x="246.6" y="15.1" fill="#FFFFFF" width="4.5" height="15.2"/>
<g>
	<defs>
		<rect id="SVGID_5_" width="282.5" height="61.5"/>
	</defs>
	<clipPath id="SVGID_6_">
		<use xlink:href="#SVGID_5_"  overflow="visible"/>
	</clipPath>
	<path clip-path="url(#SVGID_6_)" fill="#FFFFFF" d="M260.7,30.4c-2.2,0-4-0.1-5.5-0.1V15.1c1.4,0,4.4-0.1,6.4-0.1
		c4.9,0,8.2,2,8.2,7.4C269.8,28,265.8,30.4,260.7,30.4 M261.2,18.7c-0.5,0-1.1,0-1.5,0.1v7.8c0.3,0,0.8,0.1,1.5,0.1
		c2.3,0,3.9-1.4,3.9-4.1C265,20,263.7,18.7,261.2,18.7"/>
</g>
<polygon fill="#FFFFFF" points="272.6,15.1 272.6,30.3 282.5,30.3 282.5,26.7 277.1,26.7 277.1,24.3 282.2,24.3 282.2,20.8 
	277.1,20.8 277.1,18.6 282.5,18.6 282.5,15.1 "/>
<g>
	<defs>
		<rect id="SVGID_7_" width="282.5" height="61.5"/>
	</defs>
	<clipPath id="SVGID_8_">
		<use xlink:href="#SVGID_7_"  overflow="visible"/>
	</clipPath>
	<path clip-path="url(#SVGID_8_)" fill="#FFFFFF" d="M101.5,51.5c0-2.5-3.5-1.9-3.5-3.5c0-0.7,0.5-1.1,1.5-1.1c0.5,0,1,0.1,1.5,0.2
		l0.1-1.2c-0.5-0.1-1-0.1-1.5-0.1c-1.9,0-3,1-3,2.4c0,2.6,3.5,1.9,3.5,3.6c0,0.9-0.7,1.2-1.6,1.2c-0.6,0-1.2-0.1-1.7-0.3l-0.1,1.2
		c0.5,0.1,1,0.2,1.6,0.2C100.3,54.1,101.5,53,101.5,51.5"/>
	<path clip-path="url(#SVGID_8_)" fill="#FFFFFF" d="M113.8,49.8c0-2.7-1.5-4.1-3.6-4.1c-2.1,0-3.9,1.6-3.9,4.2
		c0,2.5,1.2,4.1,3.6,4.1C112.1,54.1,113.8,52.5,113.8,49.8 M112.4,50c0,2-1.2,3-2.4,3c-1.6,0-2.3-1.2-2.3-3.1c0-1.9,1.1-2.9,2.4-2.9
		C111.6,46.9,112.4,48,112.4,50"/>
	<path clip-path="url(#SVGID_8_)" fill="#FFFFFF" d="M125.3,50.9v-5h-1.3V51c0,1.5-0.6,2.1-1.9,2.1c-1.5,0-1.9-0.8-1.9-1.9v-5.2H119
		v5.3c0,1.5,0.5,2.9,3.1,2.9C124.2,54.1,125.3,53,125.3,50.9"/>
</g>
<polygon fill="#FFFFFF" points="135.8,47 135.8,45.9 130.1,45.9 130.1,47 132.3,47 132.3,54 133.6,54 133.6,47 "/>
<polygon fill="#FFFFFF" points="147,54 147,45.9 145.7,45.9 145.7,49.2 141.9,49.2 141.9,45.9 140.6,45.9 140.6,54 141.9,54 
	141.9,50.4 145.7,50.4 145.7,54 "/>
<g>
	<defs>
		<rect id="SVGID_9_" width="282.5" height="61.5"/>
	</defs>
	<clipPath id="SVGID_10_">
		<use xlink:href="#SVGID_9_"  overflow="visible"/>
	</clipPath>
	<path clip-path="url(#SVGID_10_)" fill="#FFFFFF" d="M165.5,54l-2.9-8.1h-1.4l-2.9,8.1h1.3l0.6-1.8h3.3L164,54H165.5z M163.1,51.2
		h-2.6l0.9-2.5c0.2-0.4,0.3-0.9,0.4-1.3h0c0.1,0.4,0.2,0.8,0.4,1.2L163.1,51.2z"/>
	<path clip-path="url(#SVGID_10_)" fill="#FFFFFF" d="M176.3,50.9v-5H175V51c0,1.5-0.6,2.1-1.9,2.1c-1.5,0-1.9-0.8-1.9-1.9v-5.2
		h-1.3v5.3c0,1.5,0.5,2.9,3.1,2.9C175.1,54.1,176.3,53,176.3,50.9"/>
	<path clip-path="url(#SVGID_10_)" fill="#FFFFFF" d="M186.5,51.5c0-2.5-3.5-1.9-3.5-3.5c0-0.7,0.5-1.1,1.5-1.1c0.5,0,1,0.1,1.5,0.2
		l0.1-1.2c-0.5-0.1-1-0.1-1.5-0.1c-1.9,0-3,1-3,2.4c0,2.6,3.5,1.9,3.5,3.6c0,0.9-0.7,1.2-1.6,1.2c-0.6,0-1.2-0.1-1.7-0.3l-0.1,1.2
		c0.5,0.1,1,0.2,1.6,0.2C185.3,54.1,186.5,53,186.5,51.5"/>
</g>
<polygon fill="#FFFFFF" points="196.4,47 196.4,45.9 190.6,45.9 190.6,47 192.8,47 192.8,54 194.1,54 194.1,47 "/>
<g>
	<defs>
		<rect id="SVGID_11_" width="282.5" height="61.5"/>
	</defs>
	<clipPath id="SVGID_12_">
		<use xlink:href="#SVGID_11_"  overflow="visible"/>
	</clipPath>
	<path clip-path="url(#SVGID_12_)" fill="#FFFFFF" d="M206.7,54l-2.1-2.8c-0.2-0.3-0.5-0.6-0.7-0.9c1.3-0.1,2.3-1,2.3-2.3
		c0-1.6-1.1-2.2-2.8-2.2c-0.9,0-1.6,0-2.2,0V54h1.3v-3.5h0.1L205,54H206.7z M204.8,48.2c0,0.8-0.6,1.3-1.7,1.3c-0.3,0-0.5,0-0.6,0
		V47c0.2,0,0.4,0,0.7,0C204.2,46.9,204.8,47.3,204.8,48.2"/>
	<path clip-path="url(#SVGID_12_)" fill="#FFFFFF" d="M218,54l-2.9-8.1h-1.4l-2.9,8.1h1.3l0.6-1.8h3.3l0.6,1.8H218z M215.6,51.2H213
		l0.9-2.5c0.2-0.4,0.3-0.9,0.4-1.3h0c0.1,0.4,0.2,0.8,0.4,1.2L215.6,51.2z"/>
</g>
<polygon fill="#FFFFFF" points="226.9,54 226.9,52.8 224.1,52.8 224.1,45.9 222.8,45.9 222.8,54 "/>
<rect x="231.7" y="45.9" fill="#FFFFFF" width="1.3" height="8.1"/>
<g>
	<defs>
		<rect id="SVGID_13_" width="282.5" height="61.5"/>
	</defs>
	<clipPath id="SVGID_14_">
		<use xlink:href="#SVGID_13_"  overflow="visible"/>
	</clipPath>
	<path clip-path="url(#SVGID_14_)" fill="#FFFFFF" d="M245.1,54l-2.9-8.1h-1.4l-2.9,8.1h1.3l0.6-1.8h3.3l0.6,1.8H245.1z M242.7,51.2
		h-2.6l0.9-2.5c0.2-0.4,0.3-0.9,0.4-1.3h0c0.1,0.4,0.2,0.8,0.4,1.2L242.7,51.2z"/>
</g>
</svg>
